# xmcd CD database file
#
# Track frame offsets:
#	150
#	9027
#	18317
#	27122
#	39352
#	47077
#	53950
#	59332
#	72760
#	85607
#	95980
#
# Disc length: 1872 seconds
#
# Revision: 0
# Processed by: cddbd v1.5.1PL0 Copyright (c) Steve Scherf et al.
# Submitted via: CDex 1.51
#
DISCID=7f074e0b
DTITLE=GERONIMO - STEP FORWARD NO SURRENDER
DYEAR=1900
DGENRE=Hardcore
TTITLE0=INSANE
TTITLE1=FOREIGN SUBSTANCE
TTITLE2=DON'T FORGET WHAT YOU SAW ON THAT DAY
TTITLE3=NO CREATION
TTITLE4=BRAINSTORM
TTITLE5=LITTLE HOPE
TTITLE6=UNDERSTAND IT
TTITLE7=GIVE US A REST
TTITLE8=STEP FORWARD NO SURENDER
TTITLE9=GIMMICK
TTITLE10=WHAT IS RIGHT?
EXTD=
EXTT0=
EXTT1=
EXTT2=
EXTT3=
EXTT4=
EXTT5=
EXTT6=
EXTT7=
EXTT8=
EXTT9=
EXTT10=
PLAYORDER=
